<svg width="512" height="512" viewBox="0 0 512 512" fill="none" xmlns="http://www.w3.org/2000/svg">
<path d="M426 243C426 237.477 421.523 233 416 233C410.477 233 406 237.477 406 243C406 276.086 379.086 303 346 303C340.477 303 336 307.477 336 313C336 318.523 340.477 323 346 323C390.113 323 426 287.113 426 243Z" fill="white"/>
<path d="M217.664 340.473C212.379 348.445 166 419.234 166 449C166 483.148 193.477 512 226 512C258.523 512 286 483.148 286 449C286 419.234 239.621 348.445 234.336 340.473C232.48 337.68 229.352 336 226 336C222.648 336 219.52 337.68 217.664 340.473V340.473ZM266 449C266 471.906 247.309 492 226 492C204.691 492 186 471.906 186 449C186 433.59 207.965 393.371 226 364.496C244.035 393.371 266 433.59 266 449Z" fill="white"/>
<path d="M116 166C112.715 166 109.641 167.613 107.773 170.316C101.449 179.469 46 260.762 46 296C46 334.598 77.4023 366 116 366C154.598 366 186 334.598 186 296C186 260.762 130.551 179.469 124.227 170.316C122.359 167.613 119.285 166 116 166ZM116 346C88.4297 346 66 323.57 66 296C66 276.66 93.9648 227.562 116 193.93C138.035 227.559 166 276.648 166 296C166 323.57 143.57 346 116 346Z" fill="white"/>
<path d="M246 233C246 238.523 241.523 243 236 243C230.477 243 226 238.523 226 233C226 227.477 230.477 223 236 223C241.523 223 246 227.477 246 233Z" fill="white"/>
<path d="M354.43 4.61719C352.59 1.74219 349.414 0 346 0C342.586 0 339.41 1.74219 337.57 4.61719C334.691 9.12891 266.719 115.926 238.344 191.219C236.395 196.387 239.008 202.156 244.176 204.102C249.34 206.051 255.109 203.441 257.059 198.273C278.91 140.281 326.664 60.3086 346.027 28.8555C380.215 84.1406 446 199.508 446 243C446 298.141 401.141 343 346 343C301.355 343 261.762 313.02 249.711 270.09C248.219 264.773 242.699 261.672 237.379 263.164C232.063 264.656 228.965 270.18 230.453 275.496C244.918 327.016 292.434 363 346 363C412.168 363 466 309.168 466 243C466 187.879 382.953 49.2148 354.43 4.61719V4.61719Z" fill="white"/>
</svg>
